<svg width="377" height="200" viewBox="0 0 377 200" fill="none" xmlns="http://www.w3.org/2000/svg">
<path d="M63.6365 140.952L15.9092 168.445L15.9092 113.459L63.6365 140.952Z" fill="#772BF2" fill-opacity="0.75"/>
<path d="M63.6365 140.952L111.364 168.445V113.459L63.6365 140.952Z" fill="#772BF2" fill-opacity="0.25"/>
<path d="M15.9092 113.651L63.6365 86.158L63.6365 141.144L15.9092 113.651Z" fill="#772BF2" fill-opacity="0.9"/>
<path d="M15.9091 168.254L63.6364 140.761L63.6364 195.747L15.9091 168.254Z" fill="#772BF2" fill-opacity="0.55"/>
<path d="M111.364 113.651L63.6363 86.158L63.6363 141.144L111.364 113.651Z" fill="#772BF2" fill-opacity="0.2"/>
<path d="M111.364 168.254L63.6364 140.761L63.6364 195.747L111.364 168.254Z" fill="#772BF2" fill-opacity="0.4"/>
<path d="M111.364 59.0477L159.091 31.5548V86.5405L111.364 59.0477Z" fill="#772BF2" fill-opacity="0.75"/>
<path d="M111.364 59.0477L63.6363 31.5548L63.6363 86.5405L111.364 59.0477Z" fill="#772BF2" fill-opacity="0.25"/>
<path d="M159.091 86.3493L111.364 113.842L111.364 58.8564L159.091 86.3493Z" fill="#772BF2" fill-opacity="0.9"/>
<path d="M159.091 31.746L111.364 59.2389V4.25316L159.091 31.746Z" fill="#772BF2" fill-opacity="0.55"/>
<path d="M63.6365 86.3493L111.364 113.842L111.364 58.8564L63.6365 86.3493Z" fill="#772BF2" fill-opacity="0.2"/>
<path d="M63.6364 31.746L111.364 59.2389V4.25316L63.6364 31.746Z" fill="#772BF2" fill-opacity="0.4"/>
<path d="M189.724 82.396C187.924 82.396 186.256 82.072 184.72 81.424C183.208 80.776 181.888 79.864 180.76 78.688C179.656 77.512 178.792 76.12 178.168 74.512C177.544 72.88 177.232 71.092 177.232 69.148C177.232 67.204 177.544 65.428 178.168 63.82C178.792 62.212 179.656 60.82 180.76 59.644C181.888 58.468 183.208 57.556 184.72 56.908C186.256 56.26 187.924 55.936 189.724 55.936C191.524 55.936 193.18 56.26 194.692 56.908C196.228 57.556 197.548 58.468 198.652 59.644C199.78 60.82 200.656 62.212 201.28 63.82C201.904 65.428 202.216 67.204 202.216 69.148C202.216 71.092 201.904 72.88 201.28 74.512C200.656 76.12 199.78 77.512 198.652 78.688C197.548 79.864 196.228 80.776 194.692 81.424C193.18 82.072 191.524 82.396 189.724 82.396ZM189.724 81.316C191.812 81.316 193.504 80.824 194.8 79.84C196.096 78.856 197.044 77.464 197.644 75.664C198.244 73.84 198.544 71.668 198.544 69.148C198.544 66.628 198.244 64.468 197.644 62.668C197.044 60.844 196.096 59.452 194.8 58.492C193.504 57.508 191.812 57.016 189.724 57.016C187.66 57.016 185.968 57.508 184.648 58.492C183.352 59.452 182.404 60.844 181.804 62.668C181.204 64.468 180.904 66.628 180.904 69.148C180.904 71.668 181.204 73.84 181.804 75.664C182.404 77.464 183.352 78.856 184.648 79.84C185.968 80.824 187.66 81.316 189.724 81.316ZM213.821 82.396C212.261 82.396 210.905 82 209.753 81.208C208.601 80.416 207.713 79.396 207.089 78.148C206.465 76.876 206.153 75.544 206.153 74.152C206.153 72.4 206.513 70.852 207.233 69.508C207.977 68.14 208.961 67.072 210.185 66.304C211.433 65.512 212.813 65.116 214.325 65.116C214.757 65.116 215.273 65.176 215.873 65.296C216.497 65.416 217.073 65.608 217.601 65.872C218.009 66.064 218.345 66.22 218.609 66.34C218.873 66.436 219.089 66.484 219.257 66.484C219.425 66.484 219.557 66.412 219.653 66.268C219.749 66.124 219.809 65.86 219.833 65.476H220.733L220.625 68.068L220.661 70.984H219.797C219.509 69.4 218.873 68.212 217.889 67.42C216.905 66.604 215.765 66.196 214.469 66.196C213.149 66.196 212.093 66.568 211.301 67.312C210.509 68.056 209.933 69.04 209.573 70.264C209.213 71.464 209.033 72.76 209.033 74.152C209.033 75.448 209.213 76.648 209.573 77.752C209.957 78.832 210.533 79.696 211.301 80.344C212.093 80.992 213.101 81.316 214.325 81.316C215.381 81.316 216.305 81.064 217.097 80.56C217.889 80.056 218.525 79.384 219.005 78.544C219.485 77.68 219.773 76.732 219.869 75.7H220.733L220.661 78.832L220.769 82H220.121C220.097 81.76 220.025 81.496 219.905 81.208C219.785 80.92 219.569 80.776 219.257 80.776C219.137 80.776 218.969 80.824 218.753 80.92C218.537 81.016 218.285 81.136 217.997 81.28C217.517 81.52 216.929 81.76 216.233 82C215.537 82.264 214.733 82.396 213.821 82.396ZM223.857 82.108V81.28L224.433 81.208C225.129 81.112 225.657 81.004 226.017 80.884C226.401 80.74 226.665 80.44 226.809 79.984C226.953 79.504 227.025 78.724 227.025 77.644V69.976C227.025 68.896 226.953 68.128 226.809 67.672C226.689 67.192 226.437 66.88 226.053 66.736C225.693 66.592 225.165 66.484 224.469 66.412L223.893 66.34V65.512L228.321 65.62H237.789V67.204L238.005 69.652H237.249C237.009 68.908 236.757 68.308 236.493 67.852C236.253 67.396 235.869 67.06 235.341 66.844C234.813 66.628 233.997 66.52 232.893 66.52H229.545V73.144H232.533C232.941 73.144 233.289 72.952 233.577 72.568C233.865 72.16 234.033 71.392 234.081 70.264H234.837L234.729 73.576L234.837 77.176H234.081C234.081 76 233.937 75.172 233.649 74.692C233.361 74.212 232.953 73.972 232.425 73.972H229.545V79.192C229.545 79.792 229.701 80.26 230.013 80.596C230.349 80.932 230.985 81.1 231.921 81.1H234.297C235.233 81.1 235.929 80.932 236.385 80.596C236.865 80.26 237.213 79.768 237.429 79.12C237.669 78.472 237.885 77.704 238.077 76.816H238.833L238.581 79.732V82H228.285L223.857 82.108ZM240.18 82.108V81.352L240.684 81.244C241.116 81.148 241.464 81.028 241.728 80.884C242.016 80.74 242.28 80.5 242.52 80.164C242.76 79.828 243.012 79.336 243.276 78.688L248.712 65.62H250.08L255.12 77.752C255.552 78.784 255.924 79.564 256.236 80.092C256.548 80.62 257.004 80.956 257.604 81.1L258.684 81.352V82.108L254.94 82L250.728 82.108V81.352L252.096 81.1C252.312 81.052 252.504 80.968 252.672 80.848C252.84 80.704 252.924 80.476 252.924 80.164C252.924 79.9 252.852 79.576 252.708 79.192L251.628 76.456H245.22L244.356 78.616C244.188 79.072 244.044 79.456 243.924 79.768C243.828 80.08 243.78 80.332 243.78 80.524C243.78 80.764 243.852 80.932 243.996 81.028C244.14 81.124 244.332 81.196 244.572 81.244L245.508 81.352V82.108L242.808 82L240.18 82.108ZM248.496 68.356L245.58 75.556H251.304L248.496 68.356ZM258.672 82.108V81.28L259.248 81.208C259.944 81.112 260.472 81.004 260.832 80.884C261.216 80.74 261.48 80.44 261.624 79.984C261.768 79.504 261.84 78.724 261.84 77.644V67.06C261.552 66.868 261.228 66.712 260.868 66.592C260.508 66.448 260.1 66.376 259.644 66.376H259.356L259.32 65.548L264.396 65.62C264.78 66.1 265.308 66.748 265.98 67.564C266.676 68.38 267.432 69.268 268.248 70.228C269.064 71.164 269.88 72.1 270.696 73.036C271.512 73.948 272.232 74.776 272.856 75.52C273.504 76.24 273.984 76.78 274.296 77.14V69.976C274.296 68.896 274.224 68.128 274.08 67.672C273.936 67.216 273.672 66.916 273.288 66.772C272.928 66.628 272.4 66.52 271.704 66.448L271.128 66.376V65.548L274.764 65.62L278.364 65.548V66.376L277.788 66.448C277.092 66.52 276.552 66.628 276.168 66.772C275.808 66.916 275.556 67.216 275.412 67.672C275.268 68.128 275.196 68.896 275.196 69.976V82H274.296C273.984 81.376 273.456 80.56 272.712 79.552C271.992 78.544 271.164 77.464 270.228 76.312C269.292 75.16 268.344 74.02 267.384 72.892C266.424 71.764 265.524 70.756 264.684 69.868C263.868 68.956 263.22 68.272 262.74 67.816V77.644C262.74 78.724 262.812 79.504 262.956 79.984C263.1 80.44 263.352 80.74 263.712 80.884C264.096 81.004 264.636 81.112 265.332 81.208L265.908 81.28V82.108L262.308 82.036L258.672 82.108ZM291.421 82.36L281.989 60.148C281.677 59.404 281.281 58.804 280.801 58.348C280.345 57.868 279.673 57.544 278.785 57.376L278.065 57.232V56.332L283.429 56.44L288.793 56.332V57.232L287.713 57.34C286.969 57.412 286.369 57.604 285.913 57.916C285.481 58.204 285.265 58.648 285.265 59.248C285.265 59.68 285.397 60.22 285.661 60.868L292.933 78.112L299.917 60.832C300.061 60.496 300.157 60.196 300.205 59.932C300.277 59.644 300.313 59.392 300.313 59.176C300.313 58.6 300.121 58.18 299.737 57.916C299.353 57.628 298.825 57.448 298.153 57.376L296.893 57.232V56.332L301.933 56.44L305.533 56.332V57.196L304.705 57.376C303.793 57.568 303.085 57.94 302.581 58.492C302.077 59.044 301.621 59.836 301.213 60.868L292.573 82.36H291.421ZM306.088 82.108V81.28L306.664 81.208C307.36 81.112 307.888 81.004 308.248 80.884C308.632 80.74 308.884 80.44 309.004 79.984C309.148 79.504 309.22 78.724 309.22 77.644V69.976C309.22 68.896 309.148 68.128 309.004 67.672C308.86 67.192 308.596 66.88 308.212 66.736C307.852 66.592 307.324 66.484 306.628 66.412L306.052 66.34V65.512L310.48 65.62L314.908 65.512V66.34L314.332 66.412C313.636 66.484 313.096 66.592 312.712 66.736C312.352 66.88 312.1 67.192 311.956 67.672C311.812 68.128 311.74 68.896 311.74 69.976V77.644C311.74 78.724 311.812 79.504 311.956 79.984C312.1 80.44 312.364 80.74 312.748 80.884C313.132 81.004 313.672 81.112 314.368 81.208L314.944 81.28V82.108L310.516 82L306.088 82.108ZM317.021 82.108V81.28L317.597 81.208C318.293 81.112 318.821 81.004 319.181 80.884C319.565 80.74 319.829 80.44 319.973 79.984C320.117 79.504 320.189 78.724 320.189 77.644V69.976C320.189 68.896 320.117 68.128 319.973 67.672C319.853 67.192 319.601 66.88 319.217 66.736C318.857 66.592 318.329 66.484 317.633 66.412L317.057 66.34V65.512L321.485 65.62H330.953V67.204L331.169 69.652H330.413C330.173 68.908 329.921 68.308 329.657 67.852C329.417 67.396 329.033 67.06 328.505 66.844C327.977 66.628 327.161 66.52 326.057 66.52H322.709V73.144H325.697C326.105 73.144 326.453 72.952 326.741 72.568C327.029 72.16 327.197 71.392 327.245 70.264H328.001L327.893 73.576L328.001 77.176H327.245C327.245 76 327.101 75.172 326.813 74.692C326.525 74.212 326.117 73.972 325.589 73.972H322.709V79.192C322.709 79.792 322.865 80.26 323.177 80.596C323.513 80.932 324.149 81.1 325.085 81.1H327.461C328.397 81.1 329.093 80.932 329.549 80.596C330.029 80.26 330.377 79.768 330.593 79.12C330.833 78.472 331.049 77.704 331.241 76.816H331.997L331.745 79.732V82H321.449L317.021 82.108ZM340.112 82.144L335.288 67.852C335.12 67.348 334.88 67 334.568 66.808C334.256 66.616 333.836 66.484 333.308 66.412L332.804 66.34V65.548L336.44 65.692L340.364 65.548L340.436 66.34L339.824 66.412C339.296 66.46 338.852 66.58 338.492 66.772C338.156 66.94 337.988 67.228 337.988 67.636C337.988 67.78 338.024 67.96 338.096 68.176L341.552 78.652L345.44 68.932C345.512 68.74 345.572 68.56 345.62 68.392C345.668 68.224 345.692 68.068 345.692 67.924C345.692 67.492 345.536 67.156 345.224 66.916C344.936 66.676 344.552 66.532 344.072 66.484L343.136 66.376L343.244 65.548L344.324 65.656C344.852 65.704 345.272 65.824 345.584 66.016C345.896 66.184 346.136 66.4 346.304 66.664C346.76 66.088 347.408 65.764 348.248 65.692L350.372 65.548L350.444 66.376L349.652 66.448C348.788 66.52 348.356 66.988 348.356 67.852C348.356 68.164 348.428 68.56 348.572 69.04L351.704 78.328L355.34 67.852C355.412 67.66 355.448 67.504 355.448 67.384C355.448 67.096 355.304 66.904 355.016 66.808C354.728 66.688 354.344 66.592 353.864 66.52L353.072 66.412V65.584L356.204 65.728L358.94 65.584V66.376L358.364 66.484C357.836 66.58 357.392 66.712 357.032 66.88C356.672 67.048 356.432 67.324 356.312 67.708L351.308 82.144H350.444L346.088 69.796L341.084 82.144H340.112ZM189.184 118.396C186.976 118.396 184.96 117.856 183.136 116.776C181.336 115.696 179.896 114.172 178.816 112.204C177.76 110.236 177.232 107.908 177.232 105.22C177.232 103.276 177.556 101.488 178.204 99.856C178.852 98.224 179.74 96.82 180.868 95.644C181.996 94.468 183.292 93.556 184.756 92.908C186.22 92.26 187.768 91.936 189.4 91.936C190.456 91.936 191.404 92.068 192.244 92.332C193.084 92.596 193.768 92.848 194.296 93.088C194.92 93.352 195.352 93.532 195.592 93.628C195.856 93.724 196.144 93.772 196.456 93.772C196.792 93.772 197.02 93.628 197.14 93.34C197.284 93.028 197.356 92.728 197.356 92.44H198.256L198.184 96.58L198.256 100.792H197.356C197.308 99.16 196.876 97.768 196.06 96.616C195.268 95.44 194.26 94.552 193.036 93.952C191.836 93.328 190.588 93.016 189.292 93.016C186.484 93.016 184.384 94.072 182.992 96.184C181.6 98.296 180.904 101.308 180.904 105.22C180.904 109.348 181.648 112.396 183.136 114.364C184.624 116.332 186.712 117.316 189.4 117.316C190.744 117.316 191.932 117.1 192.964 116.668C193.996 116.236 194.812 115.672 195.412 114.976C196.012 114.256 196.312 113.512 196.312 112.744V111.736C196.312 110.68 196.06 109.924 195.556 109.468C195.076 109.012 194.176 108.724 192.856 108.604L191.308 108.46V107.596L197.284 107.74L202.828 107.596V108.46L201.208 108.604C200.56 108.652 200.032 108.904 199.624 109.36C199.216 109.816 199.012 110.608 199.012 111.736V112.384C199.012 112.936 199.096 113.452 199.264 113.932C199.456 114.412 199.636 114.82 199.804 115.156L200.308 116.056L199.48 116.596C199.168 116.092 198.856 115.756 198.544 115.588C198.256 115.396 198.004 115.3 197.788 115.3C197.404 115.3 197.056 115.396 196.744 115.588C196.432 115.78 196.096 116.008 195.736 116.272C195.328 116.56 194.836 116.872 194.26 117.208C193.708 117.544 193.024 117.82 192.208 118.036C191.392 118.276 190.384 118.396 189.184 118.396ZM203.888 118.108V117.28L204.464 117.208C205.16 117.112 205.688 117.004 206.048 116.884C206.432 116.74 206.696 116.44 206.84 115.984C206.984 115.504 207.056 114.724 207.056 113.644V105.976C207.056 104.896 206.984 104.128 206.84 103.672C206.696 103.192 206.432 102.88 206.048 102.736C205.688 102.592 205.16 102.484 204.464 102.412L203.888 102.34V101.512L208.316 101.62L212.744 101.512V102.34L212.168 102.412C211.472 102.484 210.932 102.592 210.548 102.736C210.188 102.88 209.936 103.192 209.792 103.672C209.648 104.128 209.576 104.896 209.576 105.976V113.716C209.576 114.772 209.696 115.6 209.936 116.2C210.2 116.8 210.836 117.1 211.844 117.1H213.824C215.24 117.1 216.26 116.68 216.884 115.84C217.532 114.976 217.928 113.74 218.072 112.132H218.9L218.648 118.072L208.316 118L203.888 118.108ZM219.859 118.108V117.352L220.363 117.244C220.795 117.148 221.143 117.028 221.407 116.884C221.695 116.74 221.959 116.5 222.199 116.164C222.439 115.828 222.691 115.336 222.955 114.688L228.391 101.62H229.759L234.799 113.752C235.231 114.784 235.603 115.564 235.915 116.092C236.227 116.62 236.683 116.956 237.283 117.1L238.363 117.352V118.108L234.619 118L230.407 118.108V117.352L231.775 117.1C231.991 117.052 232.183 116.968 232.351 116.848C232.519 116.704 232.603 116.476 232.603 116.164C232.603 115.9 232.531 115.576 232.387 115.192L231.307 112.456H224.899L224.035 114.616C223.867 115.072 223.723 115.456 223.603 115.768C223.507 116.08 223.459 116.332 223.459 116.524C223.459 116.764 223.531 116.932 223.675 117.028C223.819 117.124 224.011 117.196 224.251 117.244L225.187 117.352V118.108L222.487 118L219.859 118.108ZM228.175 104.356L225.259 111.556H230.983L228.175 104.356ZM245.696 118.396C245.048 118.396 244.46 118.312 243.932 118.144C243.428 117.976 242.996 117.796 242.636 117.604C242.276 117.412 241.988 117.268 241.772 117.172C241.58 117.076 241.388 117.028 241.196 117.028C240.932 117.028 240.752 117.124 240.656 117.316C240.56 117.508 240.5 117.748 240.476 118.036H239.72L239.828 115.48L239.684 111.952H240.512C240.656 113.488 241.172 114.784 242.06 115.84C242.972 116.872 244.124 117.388 245.516 117.388C246.404 117.388 247.16 117.124 247.784 116.596C248.408 116.068 248.72 115.36 248.72 114.472C248.72 113.464 248.432 112.696 247.856 112.168C247.28 111.64 246.572 111.196 245.732 110.836L243.788 110.008C242.732 109.552 241.892 108.952 241.268 108.208C240.668 107.464 240.368 106.564 240.368 105.508C240.368 104.164 240.836 103.096 241.772 102.304C242.732 101.512 243.92 101.116 245.336 101.116C245.84 101.116 246.296 101.176 246.704 101.296C247.112 101.416 247.472 101.536 247.784 101.656C248.48 101.944 248.936 102.088 249.152 102.088C249.296 102.088 249.404 102.028 249.476 101.908C249.548 101.788 249.596 101.56 249.62 101.224H250.412L250.34 103.456L250.376 106.228H249.62C249.404 104.956 248.924 103.96 248.18 103.24C247.46 102.496 246.584 102.124 245.552 102.124C244.592 102.124 243.872 102.4 243.392 102.952C242.912 103.504 242.672 104.092 242.672 104.716C242.672 105.364 242.828 105.904 243.14 106.336C243.476 106.744 243.872 107.08 244.328 107.344C244.784 107.584 245.204 107.8 245.588 107.992L247.28 108.748C248.672 109.348 249.644 110.08 250.196 110.944C250.748 111.784 251.024 112.696 251.024 113.68C251.024 114.496 250.808 115.264 250.376 115.984C249.944 116.704 249.332 117.292 248.54 117.748C247.748 118.18 246.8 118.396 245.696 118.396ZM258.985 118.396C258.337 118.396 257.749 118.312 257.221 118.144C256.717 117.976 256.285 117.796 255.925 117.604C255.565 117.412 255.277 117.268 255.061 117.172C254.869 117.076 254.677 117.028 254.485 117.028C254.221 117.028 254.041 117.124 253.945 117.316C253.849 117.508 253.789 117.748 253.765 118.036H253.009L253.117 115.48L252.973 111.952H253.801C253.945 113.488 254.461 114.784 255.349 115.84C256.261 116.872 257.413 117.388 258.805 117.388C259.693 117.388 260.449 117.124 261.073 116.596C261.697 116.068 262.009 115.36 262.009 114.472C262.009 113.464 261.721 112.696 261.145 112.168C260.569 111.64 259.861 111.196 259.021 110.836L257.077 110.008C256.021 109.552 255.181 108.952 254.557 108.208C253.957 107.464 253.657 106.564 253.657 105.508C253.657 104.164 254.125 103.096 255.061 102.304C256.021 101.512 257.209 101.116 258.625 101.116C259.129 101.116 259.585 101.176 259.993 101.296C260.401 101.416 260.761 101.536 261.073 101.656C261.769 101.944 262.225 102.088 262.441 102.088C262.585 102.088 262.693 102.028 262.765 101.908C262.837 101.788 262.885 101.56 262.909 101.224H263.701L263.629 103.456L263.665 106.228H262.909C262.693 104.956 262.213 103.96 261.469 103.24C260.749 102.496 259.873 102.124 258.841 102.124C257.881 102.124 257.161 102.4 256.681 102.952C256.201 103.504 255.961 104.092 255.961 104.716C255.961 105.364 256.117 105.904 256.429 106.336C256.765 106.744 257.161 107.08 257.617 107.344C258.073 107.584 258.493 107.8 258.877 107.992L260.569 108.748C261.961 109.348 262.933 110.08 263.485 110.944C264.037 111.784 264.313 112.696 264.313 113.68C264.313 114.496 264.097 115.264 263.665 115.984C263.233 116.704 262.621 117.292 261.829 117.748C261.037 118.18 260.089 118.396 258.985 118.396ZM267.073 118.108V117.208L267.793 117.136C268.633 117.04 269.269 116.92 269.701 116.776C270.157 116.608 270.469 116.272 270.637 115.768C270.805 115.24 270.889 114.388 270.889 113.212V97.228C270.889 96.028 270.805 95.176 270.637 94.672C270.469 94.168 270.157 93.844 269.701 93.7C269.269 93.532 268.633 93.4 267.793 93.304L267.073 93.232V92.332L272.401 92.44H272.437L277.765 92.332V93.232L277.045 93.304C276.229 93.4 275.593 93.532 275.137 93.7C274.681 93.844 274.369 94.168 274.201 94.672C274.033 95.176 273.949 96.028 273.949 97.228V104.176H287.665V97.228C287.665 96.028 287.581 95.176 287.413 94.672C287.245 94.168 286.933 93.844 286.477 93.7C286.045 93.532 285.409 93.4 284.569 93.304L283.849 93.232V92.332L289.177 92.44H289.213L294.541 92.332V93.232L293.821 93.304C293.005 93.4 292.369 93.532 291.913 93.7C291.457 93.844 291.145 94.168 290.977 94.672C290.809 95.176 290.725 96.028 290.725 97.228V113.212C290.725 114.388 290.809 115.24 290.977 115.768C291.145 116.272 291.457 116.608 291.913 116.776C292.369 116.92 293.005 117.04 293.821 117.136L294.541 117.208V118.108L289.213 118H289.177L283.849 118.108V117.208L284.569 117.136C285.409 117.04 286.045 116.92 286.477 116.776C286.933 116.608 287.245 116.272 287.413 115.768C287.581 115.24 287.665 114.388 287.665 113.212V105.328H273.949V113.212C273.949 114.388 274.033 115.24 274.201 115.768C274.369 116.272 274.681 116.608 275.137 116.776C275.593 116.92 276.229 117.04 277.045 117.136L277.765 117.208V118.108L272.437 118H272.401L267.073 118.108ZM306.917 118.396C305.741 118.396 304.601 118.192 303.497 117.784C302.393 117.352 301.397 116.752 300.509 115.984C299.645 115.216 298.949 114.304 298.421 113.248C297.917 112.192 297.665 111.04 297.665 109.792C297.665 108.448 297.929 107.248 298.457 106.192C298.985 105.136 299.693 104.224 300.581 103.456C301.493 102.688 302.489 102.112 303.569 101.728C304.673 101.32 305.789 101.116 306.917 101.116C307.973 101.116 309.041 101.308 310.121 101.692C311.201 102.052 312.185 102.604 313.073 103.348C313.985 104.092 314.705 105.004 315.233 106.084C315.785 107.14 316.061 108.376 316.061 109.792C316.061 111.04 315.797 112.192 315.269 113.248C314.741 114.28 314.033 115.18 313.145 115.948C312.281 116.716 311.309 117.316 310.229 117.748C309.149 118.18 308.045 118.396 306.917 118.396ZM306.917 117.316C308.405 117.316 309.605 116.98 310.517 116.308C311.429 115.612 312.101 114.7 312.533 113.572C312.965 112.42 313.181 111.16 313.181 109.792C313.181 107.512 312.689 105.676 311.705 104.284C310.745 102.892 309.149 102.196 306.917 102.196C305.333 102.196 304.073 102.544 303.137 103.24C302.201 103.912 301.529 104.824 301.121 105.976C300.737 107.104 300.545 108.376 300.545 109.792C300.545 111.184 300.773 112.456 301.229 113.608C301.709 114.736 302.417 115.636 303.353 116.308C304.289 116.98 305.477 117.316 306.917 117.316ZM328.786 118.36C327.466 118.36 326.266 118.156 325.186 117.748C324.13 117.316 323.29 116.632 322.666 115.696C322.042 114.76 321.73 113.548 321.73 112.06V105.976C321.73 104.896 321.658 104.128 321.514 103.672C321.37 103.192 321.106 102.88 320.722 102.736C320.362 102.592 319.834 102.484 319.138 102.412L318.562 102.34V101.512L322.99 101.62L327.418 101.512V102.34L326.842 102.412C326.146 102.484 325.606 102.592 325.222 102.736C324.862 102.88 324.61 103.192 324.466 103.672C324.322 104.128 324.25 104.896 324.25 105.976V112.06C324.25 113.716 324.682 115 325.546 115.912C326.434 116.824 327.646 117.28 329.182 117.28C330.574 117.28 331.702 116.86 332.566 116.02C333.43 115.18 333.862 113.824 333.862 111.952V106.012C333.862 104.932 333.79 104.164 333.646 103.708C333.502 103.228 333.238 102.916 332.854 102.772C332.494 102.628 331.966 102.52 331.27 102.448L330.694 102.376V101.548L334.33 101.62L337.966 101.548V102.376L337.39 102.448C336.694 102.52 336.154 102.628 335.77 102.772C335.41 102.916 335.158 103.228 335.014 103.708C334.87 104.164 334.798 104.932 334.798 106.012V111.952C334.798 114.088 334.246 115.696 333.142 116.776C332.062 117.832 330.61 118.36 328.786 118.36ZM345.188 118.396C344.54 118.396 343.952 118.312 343.424 118.144C342.92 117.976 342.488 117.796 342.128 117.604C341.768 117.412 341.48 117.268 341.264 117.172C341.072 117.076 340.88 117.028 340.688 117.028C340.424 117.028 340.244 117.124 340.148 117.316C340.052 117.508 339.992 117.748 339.968 118.036H339.212L339.32 115.48L339.176 111.952H340.004C340.148 113.488 340.664 114.784 341.552 115.84C342.464 116.872 343.616 117.388 345.008 117.388C345.896 117.388 346.652 117.124 347.276 116.596C347.9 116.068 348.212 115.36 348.212 114.472C348.212 113.464 347.924 112.696 347.348 112.168C346.772 111.64 346.064 111.196 345.224 110.836L343.28 110.008C342.224 109.552 341.384 108.952 340.76 108.208C340.16 107.464 339.86 106.564 339.86 105.508C339.86 104.164 340.328 103.096 341.264 102.304C342.224 101.512 343.412 101.116 344.828 101.116C345.332 101.116 345.788 101.176 346.196 101.296C346.604 101.416 346.964 101.536 347.276 101.656C347.972 101.944 348.428 102.088 348.644 102.088C348.788 102.088 348.896 102.028 348.968 101.908C349.04 101.788 349.088 101.56 349.112 101.224H349.904L349.832 103.456L349.868 106.228H349.112C348.896 104.956 348.416 103.96 347.672 103.24C346.952 102.496 346.076 102.124 345.044 102.124C344.084 102.124 343.364 102.4 342.884 102.952C342.404 103.504 342.164 104.092 342.164 104.716C342.164 105.364 342.32 105.904 342.632 106.336C342.968 106.744 343.364 107.08 343.82 107.344C344.276 107.584 344.696 107.8 345.08 107.992L346.772 108.748C348.164 109.348 349.136 110.08 349.688 110.944C350.24 111.784 350.516 112.696 350.516 113.68C350.516 114.496 350.3 115.264 349.868 115.984C349.436 116.704 348.824 117.292 348.032 117.748C347.24 118.18 346.292 118.396 345.188 118.396ZM352.88 118.108V117.28L353.456 117.208C354.152 117.112 354.68 117.004 355.04 116.884C355.424 116.74 355.688 116.44 355.832 115.984C355.976 115.504 356.048 114.724 356.048 113.644V105.976C356.048 104.896 355.976 104.128 355.832 103.672C355.712 103.192 355.46 102.88 355.076 102.736C354.716 102.592 354.188 102.484 353.492 102.412L352.916 102.34V101.512L357.344 101.62H366.812V103.204L367.028 105.652H366.272C366.032 104.908 365.78 104.308 365.516 103.852C365.276 103.396 364.892 103.06 364.364 102.844C363.836 102.628 363.02 102.52 361.916 102.52H358.568V109.144H361.556C361.964 109.144 362.312 108.952 362.6 108.568C362.888 108.16 363.056 107.392 363.104 106.264H363.86L363.752 109.576L363.86 113.176H363.104C363.104 112 362.96 111.172 362.672 110.692C362.384 110.212 361.976 109.972 361.448 109.972H358.568V115.192C358.568 115.792 358.724 116.26 359.036 116.596C359.372 116.932 360.008 117.1 360.944 117.1H363.32C364.256 117.1 364.952 116.932 365.408 116.596C365.888 116.26 366.236 115.768 366.452 115.12C366.692 114.472 366.908 113.704 367.1 112.816H367.856L367.604 115.732V118H357.308L352.88 118.108Z" fill="#772BF2"/>
</svg>
